<mxfile host="Electron" modified="2023-10-23T13:26:18.240Z" agent="Mozilla/5.0 (Windows NT 10.0; Win64; x64) AppleWebKit/537.36 (KHTML, like Gecko) draw.io/21.6.8 Chrome/114.0.5735.289 Electron/25.5.0 Safari/537.36" etag="_1FEnxJdAs8utXEX79vG" version="21.6.8" type="device" pages="2">
  <diagram name="Overall devide" id="jdTrVrdBzZxVMbwh4MFJ">
    <mxGraphModel dx="981" dy="567" grid="1" gridSize="10" guides="1" tooltips="1" connect="1" arrows="1" fold="1" page="1" pageScale="1" pageWidth="600" pageHeight="600" math="0" shadow="0">
      <root>
        <mxCell id="0" />
        <mxCell id="1" parent="0" />
        <mxCell id="Jd6nIXP259q4PD4kJ0ej-5" style="edgeStyle=orthogonalEdgeStyle;rounded=0;orthogonalLoop=1;jettySize=auto;html=1;entryX=0;entryY=0.5;entryDx=0;entryDy=0;fontColor=#191919;" edge="1" parent="1" source="Jd6nIXP259q4PD4kJ0ej-1" target="Jd6nIXP259q4PD4kJ0ej-2">
          <mxGeometry relative="1" as="geometry" />
        </mxCell>
        <mxCell id="Jd6nIXP259q4PD4kJ0ej-1" value="Intro" style="rounded=0;whiteSpace=wrap;html=1;fillColor=#CCFFFF;fontColor=#000000;" vertex="1" parent="1">
          <mxGeometry x="80" y="160" width="120" height="80" as="geometry" />
        </mxCell>
        <mxCell id="Jd6nIXP259q4PD4kJ0ej-6" style="edgeStyle=orthogonalEdgeStyle;rounded=0;orthogonalLoop=1;jettySize=auto;html=1;entryX=0;entryY=0.5;entryDx=0;entryDy=0;fontColor=#191919;" edge="1" parent="1" source="Jd6nIXP259q4PD4kJ0ej-2" target="Jd6nIXP259q4PD4kJ0ej-3">
          <mxGeometry relative="1" as="geometry" />
        </mxCell>
        <mxCell id="Jd6nIXP259q4PD4kJ0ej-7" style="edgeStyle=orthogonalEdgeStyle;rounded=0;orthogonalLoop=1;jettySize=auto;html=1;entryX=0.5;entryY=0;entryDx=0;entryDy=0;fontColor=#191919;" edge="1" parent="1" source="Jd6nIXP259q4PD4kJ0ej-2" target="Jd6nIXP259q4PD4kJ0ej-4">
          <mxGeometry relative="1" as="geometry" />
        </mxCell>
        <mxCell id="Jd6nIXP259q4PD4kJ0ej-2" value="Game" style="rounded=0;whiteSpace=wrap;html=1;fillColor=#CCFFFF;fontColor=#000000;" vertex="1" parent="1">
          <mxGeometry x="240" y="160" width="120" height="80" as="geometry" />
        </mxCell>
        <mxCell id="Jd6nIXP259q4PD4kJ0ej-3" value="Outro" style="rounded=0;whiteSpace=wrap;html=1;fillColor=#CCFFFF;fontColor=#000000;" vertex="1" parent="1">
          <mxGeometry x="400" y="160" width="120" height="80" as="geometry" />
        </mxCell>
        <mxCell id="Jd6nIXP259q4PD4kJ0ej-8" style="edgeStyle=orthogonalEdgeStyle;rounded=0;orthogonalLoop=1;jettySize=auto;html=1;entryX=0.5;entryY=1;entryDx=0;entryDy=0;fontColor=#191919;" edge="1" parent="1" source="Jd6nIXP259q4PD4kJ0ej-4" target="Jd6nIXP259q4PD4kJ0ej-2">
          <mxGeometry relative="1" as="geometry" />
        </mxCell>
        <mxCell id="Jd6nIXP259q4PD4kJ0ej-4" value="Pause" style="rounded=0;whiteSpace=wrap;html=1;fillColor=#CCFFFF;fontColor=#000000;" vertex="1" parent="1">
          <mxGeometry x="240" y="280" width="120" height="80" as="geometry" />
        </mxCell>
      </root>
    </mxGraphModel>
  </diagram>
  <diagram id="yq_MeeLPjhwJxws_YgTT" name="Intro page architecture">
    <mxGraphModel dx="824" dy="476" grid="1" gridSize="10" guides="1" tooltips="1" connect="1" arrows="1" fold="1" page="1" pageScale="1" pageWidth="600" pageHeight="600" math="0" shadow="0">
      <root>
        <mxCell id="0" />
        <mxCell id="1" parent="0" />
      </root>
    </mxGraphModel>
  </diagram>
</mxfile>
